<mxfile host="app.diagrams.net" modified="2021-02-06T10:55:37.697Z" agent="5.0 (Windows NT 10.0; WOW64) AppleWebKit/537.36 (KHTML, like Gecko) Chrome/75.0.3770.100 Safari/537.36" etag="2Y5SrRcWdywm2Z2ci40V" version="14.2.9" type="github">
  <diagram id="ANt4uQ2tuohI1fxw9Yph" name="Page-1">
    <mxGraphModel dx="1852" dy="995" grid="1" gridSize="10" guides="1" tooltips="1" connect="1" arrows="1" fold="1" page="1" pageScale="1" pageWidth="827" pageHeight="1169" math="0" shadow="0">
      <root>
        <mxCell id="0" />
        <mxCell id="1" parent="0" />
        <mxCell id="Vy-kJfFRO_jLblAS-s1K-1" value="&lt;font style=&quot;font-size: 18px&quot; face=&quot;Times New Roman&quot;&gt;Multi-branch&lt;/font&gt;" style="rounded=1;whiteSpace=wrap;html=1;fillColor=#e1d5e7;strokeColor=#9673a6;" parent="1" vertex="1">
          <mxGeometry x="300" y="110" width="120" height="60" as="geometry" />
        </mxCell>
        <mxCell id="Vy-kJfFRO_jLblAS-s1K-2" value="&lt;span style=&quot;font-family: &amp;#34;times new roman&amp;#34; ; font-size: 18px&quot;&gt;Multi-branch&lt;/span&gt;" style="rounded=1;whiteSpace=wrap;html=1;fillColor=#e1d5e7;strokeColor=#9673a6;" parent="1" vertex="1">
          <mxGeometry x="120" y="240" width="120" height="60" as="geometry" />
        </mxCell>
        <mxCell id="Vy-kJfFRO_jLblAS-s1K-3" value="&lt;span style=&quot;font-family: &amp;#34;times new roman&amp;#34; ; font-size: 18px&quot;&gt;Multi-branch&lt;/span&gt;" style="rounded=1;whiteSpace=wrap;html=1;fillColor=#e1d5e7;strokeColor=#9673a6;" parent="1" vertex="1">
          <mxGeometry x="480" y="240" width="120" height="60" as="geometry" />
        </mxCell>
        <mxCell id="Vy-kJfFRO_jLblAS-s1K-4" value="&lt;span style=&quot;font-family: &amp;#34;times new roman&amp;#34; ; font-size: 18px&quot;&gt;Multi-branch&lt;/span&gt;" style="rounded=1;whiteSpace=wrap;html=1;fillColor=#e1d5e7;strokeColor=#9673a6;" parent="1" vertex="1">
          <mxGeometry x="40" y="360" width="120" height="60" as="geometry" />
        </mxCell>
        <mxCell id="Vy-kJfFRO_jLblAS-s1K-5" value="&lt;span style=&quot;font-family: &amp;#34;times new roman&amp;#34; ; font-size: 18px&quot;&gt;Multi-branch&lt;/span&gt;" style="rounded=1;whiteSpace=wrap;html=1;fillColor=#e1d5e7;strokeColor=#9673a6;" parent="1" vertex="1">
          <mxGeometry x="200" y="360" width="120" height="60" as="geometry" />
        </mxCell>
        <mxCell id="Vy-kJfFRO_jLblAS-s1K-6" value="&lt;span style=&quot;font-family: &amp;#34;times new roman&amp;#34; ; font-size: 18px&quot;&gt;Multi-branch&lt;/span&gt;" style="rounded=1;whiteSpace=wrap;html=1;fillColor=#e1d5e7;strokeColor=#9673a6;" parent="1" vertex="1">
          <mxGeometry x="400" y="360" width="120" height="60" as="geometry" />
        </mxCell>
        <mxCell id="Vy-kJfFRO_jLblAS-s1K-7" value="&lt;span style=&quot;font-family: &amp;#34;times new roman&amp;#34; ; font-size: 18px&quot;&gt;Multi-branch&lt;/span&gt;" style="rounded=1;whiteSpace=wrap;html=1;fillColor=#e1d5e7;strokeColor=#9673a6;" parent="1" vertex="1">
          <mxGeometry x="560" y="360" width="120" height="60" as="geometry" />
        </mxCell>
        <mxCell id="Vy-kJfFRO_jLblAS-s1K-10" value="" style="endArrow=classic;html=1;exitX=0.5;exitY=1;exitDx=0;exitDy=0;entryX=0.433;entryY=-0.033;entryDx=0;entryDy=0;entryPerimeter=0;strokeColor=#3333FF;" parent="1" source="Vy-kJfFRO_jLblAS-s1K-1" target="Vy-kJfFRO_jLblAS-s1K-2" edge="1">
          <mxGeometry width="50" height="50" relative="1" as="geometry">
            <mxPoint x="390" y="410" as="sourcePoint" />
            <mxPoint x="440" y="360" as="targetPoint" />
            <Array as="points">
              <mxPoint x="360" y="200" />
              <mxPoint x="172" y="200" />
            </Array>
          </mxGeometry>
        </mxCell>
        <mxCell id="Vy-kJfFRO_jLblAS-s1K-11" value="" style="endArrow=classic;html=1;exitX=0.5;exitY=1;exitDx=0;exitDy=0;entryX=0.5;entryY=0;entryDx=0;entryDy=0;strokeColor=#3333FF;" parent="1" source="Vy-kJfFRO_jLblAS-s1K-1" target="Vy-kJfFRO_jLblAS-s1K-3" edge="1">
          <mxGeometry width="50" height="50" relative="1" as="geometry">
            <mxPoint x="390" y="410" as="sourcePoint" />
            <mxPoint x="440" y="360" as="targetPoint" />
            <Array as="points">
              <mxPoint x="360" y="200" />
              <mxPoint x="540" y="200" />
            </Array>
          </mxGeometry>
        </mxCell>
        <mxCell id="Vy-kJfFRO_jLblAS-s1K-12" value="" style="endArrow=classic;html=1;exitX=0.417;exitY=1;exitDx=0;exitDy=0;exitPerimeter=0;entryX=0.5;entryY=0;entryDx=0;entryDy=0;strokeColor=#3333FF;" parent="1" source="Vy-kJfFRO_jLblAS-s1K-2" target="Vy-kJfFRO_jLblAS-s1K-4" edge="1">
          <mxGeometry width="50" height="50" relative="1" as="geometry">
            <mxPoint x="390" y="410" as="sourcePoint" />
            <mxPoint x="440" y="360" as="targetPoint" />
            <Array as="points">
              <mxPoint x="170" y="330" />
              <mxPoint x="100" y="330" />
            </Array>
          </mxGeometry>
        </mxCell>
        <mxCell id="Vy-kJfFRO_jLblAS-s1K-13" value="" style="endArrow=classic;html=1;entryX=0.5;entryY=0;entryDx=0;entryDy=0;strokeColor=#3333FF;" parent="1" target="Vy-kJfFRO_jLblAS-s1K-5" edge="1">
          <mxGeometry width="50" height="50" relative="1" as="geometry">
            <mxPoint x="170" y="300" as="sourcePoint" />
            <mxPoint x="440" y="360" as="targetPoint" />
            <Array as="points">
              <mxPoint x="170" y="330" />
              <mxPoint x="260" y="330" />
            </Array>
          </mxGeometry>
        </mxCell>
        <mxCell id="Vy-kJfFRO_jLblAS-s1K-14" value="" style="endArrow=classic;html=1;exitX=0.5;exitY=1;exitDx=0;exitDy=0;entryX=0.5;entryY=0;entryDx=0;entryDy=0;strokeColor=#3333FF;" parent="1" source="Vy-kJfFRO_jLblAS-s1K-3" target="Vy-kJfFRO_jLblAS-s1K-6" edge="1">
          <mxGeometry width="50" height="50" relative="1" as="geometry">
            <mxPoint x="330" y="250" as="sourcePoint" />
            <mxPoint x="380" y="200" as="targetPoint" />
            <Array as="points">
              <mxPoint x="540" y="330" />
              <mxPoint x="460" y="330" />
            </Array>
          </mxGeometry>
        </mxCell>
        <mxCell id="Vy-kJfFRO_jLblAS-s1K-15" value="" style="endArrow=classic;html=1;exitX=0.5;exitY=1;exitDx=0;exitDy=0;entryX=0.5;entryY=0;entryDx=0;entryDy=0;strokeColor=#3333FF;" parent="1" source="Vy-kJfFRO_jLblAS-s1K-3" target="Vy-kJfFRO_jLblAS-s1K-7" edge="1">
          <mxGeometry width="50" height="50" relative="1" as="geometry">
            <mxPoint x="330" y="250" as="sourcePoint" />
            <mxPoint x="380" y="200" as="targetPoint" />
            <Array as="points">
              <mxPoint x="540" y="330" />
              <mxPoint x="620" y="330" />
            </Array>
          </mxGeometry>
        </mxCell>
        <mxCell id="Vy-kJfFRO_jLblAS-s1K-16" value="" style="endArrow=classic;html=1;exitX=0.657;exitY=1.006;exitDx=0;exitDy=0;exitPerimeter=0;strokeColor=#FF3333;entryX=0.5;entryY=0.037;entryDx=0;entryDy=0;entryPerimeter=0;" parent="1" source="Vy-kJfFRO_jLblAS-s1K-1" target="Vy-kJfFRO_jLblAS-s1K-29" edge="1">
          <mxGeometry width="50" height="50" relative="1" as="geometry">
            <mxPoint x="330" y="330" as="sourcePoint" />
            <mxPoint x="690" y="300" as="targetPoint" />
            <Array as="points">
              <mxPoint x="379" y="190" />
              <mxPoint x="690" y="190" />
            </Array>
          </mxGeometry>
        </mxCell>
        <mxCell id="Vy-kJfFRO_jLblAS-s1K-17" value="" style="endArrow=classic;html=1;exitX=0.641;exitY=1.001;exitDx=0;exitDy=0;exitPerimeter=0;strokeColor=#FF3333;" parent="1" source="Vy-kJfFRO_jLblAS-s1K-2" target="Vy-kJfFRO_jLblAS-s1K-29" edge="1">
          <mxGeometry width="50" height="50" relative="1" as="geometry">
            <mxPoint x="197" y="301" as="sourcePoint" />
            <mxPoint x="670" y="320" as="targetPoint" />
            <Array as="points">
              <mxPoint x="197" y="320" />
              <mxPoint x="390" y="320" />
            </Array>
          </mxGeometry>
        </mxCell>
        <mxCell id="Vy-kJfFRO_jLblAS-s1K-18" value="" style="endArrow=classic;html=1;strokeColor=#FF3333;entryX=0;entryY=0.5;entryDx=0;entryDy=0;" parent="1" target="Vy-kJfFRO_jLblAS-s1K-29" edge="1">
          <mxGeometry width="50" height="50" relative="1" as="geometry">
            <mxPoint x="558" y="300" as="sourcePoint" />
            <mxPoint x="670" y="320" as="targetPoint" />
            <Array as="points">
              <mxPoint x="558" y="320" />
            </Array>
          </mxGeometry>
        </mxCell>
        <mxCell id="Vy-kJfFRO_jLblAS-s1K-19" value="" style="endArrow=classic;html=1;strokeColor=#FF3333;entryX=0.5;entryY=1;entryDx=0;entryDy=0;" parent="1" target="Vy-kJfFRO_jLblAS-s1K-29" edge="1">
          <mxGeometry width="50" height="50" relative="1" as="geometry">
            <mxPoint x="118" y="420" as="sourcePoint" />
            <mxPoint x="690" y="320" as="targetPoint" />
            <Array as="points">
              <mxPoint x="118" y="440" />
              <mxPoint x="290" y="440" />
              <mxPoint x="690" y="440" />
            </Array>
          </mxGeometry>
        </mxCell>
        <mxCell id="Vy-kJfFRO_jLblAS-s1K-21" value="" style="endArrow=classic;html=1;exitX=0.662;exitY=0.999;exitDx=0;exitDy=0;exitPerimeter=0;strokeColor=#FF3333;entryX=0.5;entryY=1;entryDx=0;entryDy=0;" parent="1" source="Vy-kJfFRO_jLblAS-s1K-5" target="Vy-kJfFRO_jLblAS-s1K-29" edge="1">
          <mxGeometry width="50" height="50" relative="1" as="geometry">
            <mxPoint x="630" y="460" as="sourcePoint" />
            <mxPoint x="690" y="340" as="targetPoint" />
            <Array as="points">
              <mxPoint x="280" y="440" />
              <mxPoint x="690" y="440" />
            </Array>
          </mxGeometry>
        </mxCell>
        <mxCell id="Vy-kJfFRO_jLblAS-s1K-22" value="" style="endArrow=classic;html=1;exitX=0.656;exitY=1.027;exitDx=0;exitDy=0;exitPerimeter=0;strokeColor=#FF3333;entryX=0.5;entryY=1;entryDx=0;entryDy=0;" parent="1" source="Vy-kJfFRO_jLblAS-s1K-6" target="Vy-kJfFRO_jLblAS-s1K-29" edge="1">
          <mxGeometry width="50" height="50" relative="1" as="geometry">
            <mxPoint x="740" y="350" as="sourcePoint" />
            <mxPoint x="690" y="340" as="targetPoint" />
            <Array as="points">
              <mxPoint x="479" y="440" />
              <mxPoint x="690" y="440" />
            </Array>
          </mxGeometry>
        </mxCell>
        <mxCell id="Vy-kJfFRO_jLblAS-s1K-23" value="" style="endArrow=classic;html=1;exitX=0.685;exitY=0.993;exitDx=0;exitDy=0;exitPerimeter=0;strokeColor=#FF3333;entryX=0.5;entryY=1;entryDx=0;entryDy=0;" parent="1" source="Vy-kJfFRO_jLblAS-s1K-7" target="Vy-kJfFRO_jLblAS-s1K-29" edge="1">
          <mxGeometry width="50" height="50" relative="1" as="geometry">
            <mxPoint x="740" y="350" as="sourcePoint" />
            <mxPoint x="690" y="340" as="targetPoint" />
            <Array as="points">
              <mxPoint x="642" y="440" />
              <mxPoint x="690" y="440" />
            </Array>
          </mxGeometry>
        </mxCell>
        <mxCell id="Vy-kJfFRO_jLblAS-s1K-24" value="" style="endArrow=classic;html=1;exitX=0.25;exitY=1;exitDx=0;exitDy=0;strokeColor=#3333FF;" parent="1" source="Vy-kJfFRO_jLblAS-s1K-4" edge="1">
          <mxGeometry width="50" height="50" relative="1" as="geometry">
            <mxPoint x="700" y="320" as="sourcePoint" />
            <mxPoint x="70" y="480" as="targetPoint" />
          </mxGeometry>
        </mxCell>
        <mxCell id="Vy-kJfFRO_jLblAS-s1K-25" value="" style="endArrow=classic;html=1;exitX=0.25;exitY=1;exitDx=0;exitDy=0;strokeColor=#3333FF;" parent="1" edge="1">
          <mxGeometry width="50" height="50" relative="1" as="geometry">
            <mxPoint x="240" y="420" as="sourcePoint" />
            <mxPoint x="240" y="480" as="targetPoint" />
          </mxGeometry>
        </mxCell>
        <mxCell id="Vy-kJfFRO_jLblAS-s1K-26" value="" style="endArrow=classic;html=1;exitX=0.25;exitY=1;exitDx=0;exitDy=0;strokeColor=#3333FF;" parent="1" edge="1">
          <mxGeometry width="50" height="50" relative="1" as="geometry">
            <mxPoint x="440" y="420" as="sourcePoint" />
            <mxPoint x="440" y="480" as="targetPoint" />
            <Array as="points">
              <mxPoint x="440" y="450" />
            </Array>
          </mxGeometry>
        </mxCell>
        <mxCell id="Vy-kJfFRO_jLblAS-s1K-27" value="" style="endArrow=classic;html=1;exitX=0.25;exitY=1;exitDx=0;exitDy=0;strokeColor=#3333FF;" parent="1" edge="1">
          <mxGeometry width="50" height="50" relative="1" as="geometry">
            <mxPoint x="600" y="420" as="sourcePoint" />
            <mxPoint x="600" y="480" as="targetPoint" />
          </mxGeometry>
        </mxCell>
        <mxCell id="Vy-kJfFRO_jLblAS-s1K-29" value="&lt;font style=&quot;font-size: 18px&quot;&gt;+&lt;/font&gt;" style="ellipse;whiteSpace=wrap;html=1;aspect=fixed;" parent="1" vertex="1">
          <mxGeometry x="675" y="305" width="30" height="30" as="geometry" />
        </mxCell>
        <mxCell id="Vy-kJfFRO_jLblAS-s1K-30" value="" style="endArrow=classic;html=1;strokeColor=#FF3333;exitX=1;exitY=0.5;exitDx=0;exitDy=0;" parent="1" source="Vy-kJfFRO_jLblAS-s1K-29" edge="1">
          <mxGeometry width="50" height="50" relative="1" as="geometry">
            <mxPoint x="540" y="340" as="sourcePoint" />
            <mxPoint x="740" y="320" as="targetPoint" />
          </mxGeometry>
        </mxCell>
        <mxCell id="Vy-kJfFRO_jLblAS-s1K-31" value="" style="endArrow=classic;html=1;entryX=0.5;entryY=0;entryDx=0;entryDy=0;" parent="1" target="Vy-kJfFRO_jLblAS-s1K-1" edge="1">
          <mxGeometry width="50" height="50" relative="1" as="geometry">
            <mxPoint x="360" y="80" as="sourcePoint" />
            <mxPoint x="590" y="80" as="targetPoint" />
          </mxGeometry>
        </mxCell>
        <mxCell id="Vy-kJfFRO_jLblAS-s1K-32" value="&lt;font style=&quot;font-size: 14px&quot; face=&quot;Times New Roman&quot;&gt;The solid blue line represents backcast&lt;br&gt;The solid red line represents forecast&lt;/font&gt;" style="text;html=1;align=center;verticalAlign=middle;resizable=0;points=[];autosize=1;" parent="1" vertex="1">
          <mxGeometry x="510" y="490" width="250" height="30" as="geometry" />
        </mxCell>
      </root>
    </mxGraphModel>
  </diagram>
</mxfile>
